<svg width="500" height="700" viewBox="0 0 500 700" fill="none" xmlns="http://www.w3.org/2000/svg">
<g opacity="0.7">
<mask id="mask0_2105_5430" style="mask-type:alpha" maskUnits="userSpaceOnUse" x="0" y="0" width="500" height="700">
<rect width="500" height="700" fill="#C4C4C4"/>
</mask>
<g mask="url(#mask0_2105_5430)">
<path d="M47.452 8.1374C47.452 8.1374 105.874 -30.7815 155.872 61.6076C205.87 153.997 167.227 501.556 238.286 490.726C309.345 479.897 336.45 166.18 424.541 275.152C512.632 384.124 510.435 604.436 510.435 604.436" stroke="white"/>
<path d="M-64.6306 7.44543C110.299 33.4473 -64.6306 350.605 39.8002 363.6C144.231 376.595 174.736 178.348 323.63 319.47C472.524 460.592 439.933 857.159 621.785 601.939" stroke="#D4D3F8"/>
<path d="M44.3391 6.61429C46.7687 6.97543 103.568 -28.4794 151.932 63.6813C200.296 155.842 162.237 496.039 232.773 485.691C304.759 475.524 331.958 165.014 421.738 274.879C511.519 384.744 508.477 609.952 513.528 602.863" stroke="#FEFEFF"/>
<path d="M41.2255 5.22776C46.0846 5.95003 101.261 -26.0406 147.992 65.8916C194.722 157.824 157.247 490.659 227.259 480.793C300.172 471.287 327.466 163.985 418.935 274.743C510.404 385.501 506.518 615.605 516.621 601.426" stroke="#FDFDFF"/>
<path d="M38.1119 3.99114C45.4007 5.07455 98.9545 -23.452 144.051 68.2517C189.148 159.955 152.257 485.429 221.746 476.044C295.586 467.2 322.974 163.105 416.132 274.756C509.29 386.407 504.56 621.408 519.714 600.139" stroke="#FBFBFE"/>
<path d="M34.9983 2.92428C44.7166 4.36883 96.6476 -20.6936 140.111 70.7817C183.574 162.257 147.266 480.369 216.232 471.465C290.999 463.283 318.482 162.396 413.329 274.94C508.176 387.484 502.601 627.38 522.807 599.022" stroke="#FAFAFE"/>
<path d="M31.8854 2.04919C44.0333 3.85487 94.3414 -17.7434 136.171 73.5034C178.001 164.75 142.277 475.501 210.719 467.078C286.413 459.557 313.99 161.878 410.526 275.315C507.062 388.752 500.643 633.544 525.9 598.097" stroke="#F9F9FE"/>
<path d="M28.7717 1.40024C43.3492 3.56705 92.0345 -14.5671 132.23 76.4512C172.426 167.47 137.287 470.858 205.205 462.917C281.826 456.058 309.498 161.586 407.723 275.916C505.948 390.247 498.685 639.935 528.993 597.398" stroke="#F8F8FE"/>
<path d="M25.6581 1.44788C42.6651 3.97583 89.7276 -10.6942 128.29 80.0957C166.852 170.885 132.296 466.913 199.691 459.452C277.239 453.255 305.005 161.991 404.919 277.214C504.834 392.438 496.726 647.022 532.086 597.396" stroke="#F7F6FE"/>
<path d="M22.5452 1.65454C41.9818 4.54363 87.4214 -6.66222 124.35 83.8991C161.279 174.461 127.307 463.126 194.178 456.147C272.653 450.612 300.514 162.555 402.117 278.671C503.72 394.788 494.768 654.268 535.179 597.552" stroke="#F5F5FD"/>
<path d="M19.4315 1.86121C41.2977 5.11143 85.1145 -2.63028 120.41 87.7026C155.705 178.035 122.316 459.339 188.665 452.842C268.067 447.968 296.022 163.119 399.314 280.128C502.606 397.138 492.81 661.513 538.272 597.709" stroke="#F4F4FD"/>
<path d="M16.318 2.06818C40.6138 5.67954 82.8077 1.40196 116.469 91.5064C150.131 181.611 117.326 455.553 183.151 449.536C263.48 445.325 291.529 163.683 396.51 281.585C501.491 399.488 490.851 668.76 541.365 597.865" stroke="#F3F3FD"/>
<path d="M13.2051 2.27515C39.9304 6.24765 80.5015 5.4342 112.529 95.3101C144.557 185.186 112.337 451.767 177.638 446.231C258.894 442.682 287.038 164.247 393.708 283.043C500.378 401.838 488.893 676.006 544.459 598.022" stroke="#F2F2FD"/>
<path d="M10.0914 2.48145C39.2464 6.81508 78.1946 9.46577 108.589 99.1132C138.983 188.761 107.346 447.979 172.124 442.926C254.307 440.037 282.545 164.811 390.904 284.499C499.263 404.188 486.935 683.251 547.552 598.178" stroke="#F1F0FD"/>
<path d="M6.97778 2.68884C38.5623 7.38362 75.8877 13.4984 104.648 102.917C133.409 192.336 102.356 444.193 166.611 439.621C249.721 437.395 278.053 165.375 388.101 285.957C498.149 406.539 484.976 690.498 550.645 598.336" stroke="#EFEFFC"/>
<path d="M3.86414 2.89545C37.8782 7.95136 73.5808 17.5303 100.708 106.721C127.835 195.911 97.3658 440.407 161.097 436.315C245.134 434.751 273.561 165.939 385.298 287.414C497.035 408.889 483.017 697.744 553.737 598.492" stroke="#EEEEFC"/>
<path d="M0.751221 3.10211C37.1949 8.51916 71.2746 21.5623 96.7681 110.524C122.262 199.486 92.3763 436.62 155.584 433.01C240.548 432.107 269.069 166.503 382.495 288.871C495.921 411.239 481.059 704.99 556.831 598.649" stroke="#EDEDFC"/>
<path d="M-2.36243 3.30872C36.5108 9.0869 68.9677 25.5941 92.8276 114.328C116.687 203.061 87.386 432.833 150.07 429.705C235.961 429.464 264.577 167.067 379.692 290.328C494.807 413.588 479.101 712.236 559.924 598.805" stroke="#ECEBFC"/>
<path d="M-5.47534 3.51575C35.8275 9.65507 66.6615 29.6264 88.8878 118.132C111.114 206.637 82.3964 429.047 144.557 426.4C231.375 426.821 260.085 167.631 376.889 291.785C493.693 415.939 477.143 719.482 563.017 598.962" stroke="#EBEAFB"/>
<path d="M-8.58887 3.72241C35.1435 10.2229 64.3547 33.6584 84.9474 121.935C105.54 210.212 77.4062 425.26 139.043 423.094C226.788 424.177 255.593 168.195 374.086 293.242C492.579 418.289 475.184 726.728 566.11 599.119" stroke="#EAE9FB"/>
<path d="M-11.7025 3.92938C34.4595 10.791 62.0478 37.6906 81.0068 125.739C99.9659 213.787 72.4159 421.474 133.53 419.789C222.202 421.533 251.101 168.759 371.283 294.699C491.464 420.639 473.226 733.975 569.203 599.275" stroke="#E8E8FB"/>
<path d="M-14.8162 4.13635C33.7754 11.3591 59.7409 41.7228 77.0663 129.542C94.3917 217.362 67.4256 417.687 128.016 416.484C217.615 418.89 246.609 169.324 368.479 296.157C490.35 422.99 471.267 741.221 572.296 599.432" stroke="#E7E6FB"/>
<path d="M-17.9298 4.34265C33.0913 11.9265 57.434 45.7544 73.1258 133.346C88.8176 220.937 62.4353 413.9 122.502 413.178C213.028 416.246 242.116 169.887 365.676 297.613C489.236 425.339 469.309 748.466 575.389 599.588" stroke="#E6E5FB"/>
<path d="M-21.0427 4.54999C32.408 12.495 55.1278 49.787 69.186 137.15C83.2442 224.512 57.4458 410.114 116.989 409.873C208.442 413.603 237.625 170.452 362.873 299.071C488.122 427.69 467.351 755.713 578.482 599.746" stroke="#E5E4FA"/>
<path d="M-24.1564 4.75665C31.7239 13.0628 52.8209 53.819 65.2455 140.953C77.6701 228.087 52.4555 406.328 111.476 406.568C203.855 410.96 233.132 171.016 360.07 300.528C487.008 430.04 465.392 762.959 581.575 599.902" stroke="#E4E3FA"/>
<path d="M-27.2693 4.96362C31.0406 13.6309 50.5147 57.8512 61.3057 144.757C72.0967 231.663 47.4659 402.541 105.963 403.263C199.269 408.316 228.641 171.58 357.268 301.985C485.894 432.39 463.434 770.205 584.669 600.059" stroke="#E2E2FA"/>
<path d="M-30.3828 5.17029C30.3567 14.1987 48.2079 61.8831 57.3653 148.56C66.5227 235.238 42.4758 398.754 100.449 399.958C194.683 405.673 224.149 172.144 354.464 303.442C484.78 434.74 461.476 777.451 587.762 600.215" stroke="#E1E0FA"/>
<path d="M-33.4965 5.37695C29.6726 14.7665 45.901 65.9151 53.4248 152.364C60.9485 238.813 37.4855 394.968 94.9352 396.652C190.096 403.029 219.656 172.708 351.661 304.899C483.666 437.09 459.517 784.697 590.854 600.372" stroke="#E0DFFA"/>
<path d="M-36.6101 5.58392C28.9885 15.3346 43.5941 69.9473 49.4842 156.168C55.3744 242.388 32.4951 391.181 89.4215 393.347C185.509 400.386 215.164 173.272 348.858 306.356C482.551 439.441 457.558 791.943 593.947 600.529" stroke="#DFDEF9"/>
<path d="M-39.723 5.79089C28.3052 15.9027 41.2879 73.9796 45.5445 159.971C49.801 245.963 27.5056 387.395 83.9085 390.042C180.923 397.742 210.673 173.836 346.055 307.813C481.438 441.791 455.601 799.19 597.041 600.686" stroke="#DEDDF9"/>
<path d="M-42.8367 5.99756C27.6211 16.4705 38.981 78.0115 41.6039 163.775C44.2269 249.538 22.5153 383.608 78.3948 386.737C176.337 395.099 206.18 174.4 343.252 309.27C480.323 444.141 453.642 806.436 600.134 600.842" stroke="#DCDBF9"/>
<path d="M-45.9503 6.20422C26.937 17.0383 36.6741 82.0434 37.6634 167.578C38.6527 253.113 17.525 379.822 72.881 383.431C171.75 392.455 201.688 174.964 340.448 310.727C479.209 446.491 451.683 813.682 603.227 600.999" stroke="#DBDAF9"/>
<path d="M-49.0638 6.41119C26.2531 17.6064 34.3673 86.0757 33.723 171.382C33.0787 256.689 12.5348 376.035 67.3674 380.126C167.163 389.812 197.196 175.528 337.645 312.185C478.095 448.841 449.725 820.928 606.319 601.156" stroke="#DAD9F9"/>
<path d="M-52.1768 6.61816C25.5698 18.1745 32.0611 90.1079 29.7832 175.186C27.5053 260.264 7.54526 372.249 61.8544 376.821C162.577 387.169 192.704 176.092 334.843 313.642C476.981 451.192 447.767 828.174 609.413 601.312" stroke="#D9D8F8"/>
<path d="M-55.2904 6.82483C24.8857 18.7423 29.7542 94.1398 25.8427 178.989C21.9312 263.839 2.55496 368.462 56.3407 373.516C157.991 384.525 188.212 176.656 332.039 315.099C475.867 453.542 445.808 835.42 612.506 601.469" stroke="#D8D7F8"/>
<path d="M-58.4041 7.03149C24.2016 19.3101 27.4473 98.1718 21.9022 182.793C16.357 267.414 -2.43533 364.675 50.827 370.21C153.404 381.881 183.72 177.22 329.236 316.556C474.752 455.892 443.85 842.666 615.599 601.625" stroke="#D6D5F8"/>
<path d="M-61.517 7.23846C23.5183 19.8782 25.1411 102.204 17.9624 186.597C10.7836 270.989 -7.42489 360.889 45.314 366.905C148.818 379.238 179.228 177.784 326.433 318.013C473.639 458.242 441.892 849.912 618.692 601.782" stroke="#D5D4F8"/>
<rect x="-130.644" width="703.438" height="231.62" fill="url(#paint0_linear_2105_5430)"/>
<rect width="703.438" height="231.62" transform="matrix(1 0 0 -1 -130.644 686)" fill="url(#paint1_linear_2105_5430)"/>
</g>
</g>
<defs>
<linearGradient id="paint0_linear_2105_5430" x1="221.075" y1="0" x2="221.075" y2="231.62" gradientUnits="userSpaceOnUse">
<stop stop-color="white"/>
<stop offset="0.92993" stop-color="white" stop-opacity="0"/>
</linearGradient>
<linearGradient id="paint1_linear_2105_5430" x1="351.719" y1="53.3811" x2="351.719" y2="231.62" gradientUnits="userSpaceOnUse">
<stop stop-color="white"/>
<stop offset="0.92993" stop-color="white" stop-opacity="0"/>
</linearGradient>
</defs>
</svg>
